<?xml version="1.0" encoding="UTF-8"?>
<!DOCTYPE svg PUBLIC "-//W3C//DTD SVG 1.1//EN" "http://www.w3.org/Graphics/SVG/1.1/DTD/svg11.dtd">
<svg xmlns="http://www.w3.org/2000/svg" version="1.1" width="512px" height="512px" style="shape-rendering:geometricPrecision; text-rendering:geometricPrecision; image-rendering:optimizeQuality; fill-rule:evenodd; clip-rule:evenodd" xmlns:xlink="http://www.w3.org/1999/xlink">
<g><path style="opacity:0.965" fill="white" d="M 248.5,42.5 C 257.952,40.7381 266.119,43.0714 273,49.5C 274.893,52.618 276.226,55.9513 277,59.5C 277.667,119.167 277.667,178.833 277,238.5C 274.117,249.547 266.95,255.213 255.5,255.5C 244.05,255.213 236.883,249.547 234,238.5C 233.333,178.833 233.333,119.167 234,59.5C 235.5,50.8434 240.334,45.1767 248.5,42.5 Z"/></g>
<g><path style="opacity:0.971" fill="white" d="M 165.5,129.5 C 178.273,129.776 186.106,136.11 189,148.5C 190.481,157.372 187.647,164.539 180.5,170C 142.826,193.734 121.326,227.901 116,272.5C 112.381,329.759 134.215,374.259 181.5,406C 236.152,435.409 288.818,432.409 339.5,397C 384.516,356.943 400.016,307.443 386,248.5C 378.101,222.86 364.268,201.027 344.5,183C 336.394,177.195 328.561,171.028 321,164.5C 314.963,151.034 318.13,140.2 330.5,132C 337.651,128.627 344.651,128.96 351.5,133C 371.287,145.12 387.454,160.954 400,180.5C 436.673,237.555 442.339,297.555 417,360.5C 387.839,422.306 339.339,458.139 271.5,468C 194.105,472.388 134.605,442.221 93,377.5C 61.6866,317.526 61.6866,257.526 93,197.5C 108.024,171.475 128.191,150.308 153.5,134C 157.432,131.972 161.432,130.472 165.5,129.5 Z"/></g>
</svg>
